<svg width="200" height="80" viewBox="0 0 200 80" xmlns="http://www.w3.org/2000/svg">
  <rect width="200" height="80" fill="#2E5BBA"/>
  <g fill="white">
    <!-- N -->
    <polygon points="15,15 15,65 25,65 25,35 35,50 45,35 45,65 55,65 55,15 45,15 35,30 25,15"/>
    <!-- E -->
    <polygon points="70,15 70,25 85,25 85,35 75,35 75,45 85,45 85,55 70,55 70,65 95,65 95,15"/>
    <!-- M -->
    <polygon points="115,15 115,65 125,65 125,35 135,50 145,35 145,65 155,65 155,15 145,15 135,30 125,15"/>
    <!-- A -->
    <polygon points="175,15 165,15 155,65 165,65 167,55 183,55 185,65 195,65 185,15 175,15"/>
    <polygon points="170,45 180,45 175,30"/>
  </g>
</svg>
